<?xml version="1.0" encoding="UTF-8" standalone="no"?>
<!DOCTYPE svg PUBLIC "-//W3C//DTD SVG 1.1//EN"
 "http://www.w3.org/Graphics/SVG/1.1/DTD/svg11.dtd">
<!-- Generated by graphviz version 2.47.0 (20210316.0004)
 -->
<!-- Title: dependencies Pages: 1 -->
<svg width="1680pt" height="284pt"
 viewBox="0.00 0.00 1680.00 284.00" xmlns="http://www.w3.org/2000/svg" xmlns:xlink="http://www.w3.org/1999/xlink">
<g id="graph0" class="graph" transform="scale(1 1) rotate(0) translate(4 280)">
<title>dependencies</title>
<polygon fill="white" stroke="transparent" points="-4,4 -4,-280 1676,-280 1676,4 -4,4"/>
<text text-anchor="start" x="815.01" y="-42.4" font-family="Times-12" font-weight="bold" font-size="14.00">Legend</text>
<polygon fill="#ffffb3" stroke="transparent" points="602,-10 602,-30 622,-30 622,-10 602,-10"/>
<text text-anchor="start" x="625.63" y="-15.4" font-family="Times-12" font-size="14.00"> &#160;Declarations</text>
<polygon fill="#8dd3c7" stroke="transparent" points="715,-10 715,-30 735,-30 735,-10 715,-10"/>
<text text-anchor="start" x="738.73" y="-15.4" font-family="Times-12" font-size="14.00"> &#160;Module</text>
<polygon fill="#80b1d3" stroke="transparent" points="801,-10 801,-30 821,-30 821,-10 801,-10"/>
<text text-anchor="start" x="824.78" y="-15.4" font-family="Times-12" font-size="14.00"> &#160;Bootstrap</text>
<polygon fill="#fdb462" stroke="transparent" points="898,-10 898,-30 918,-30 918,-10 898,-10"/>
<text text-anchor="start" x="921.67" y="-15.4" font-family="Times-12" font-size="14.00"> &#160;Providers</text>
<polygon fill="#fb8072" stroke="transparent" points="994,-10 994,-30 1014,-30 1014,-10 994,-10"/>
<text text-anchor="start" x="1017.73" y="-15.4" font-family="Times-12" font-size="14.00"> &#160;Exports</text>
<g id="clust1" class="cluster">
<title>cluster_AppModule</title>
<polygon fill="none" stroke="black" stroke-dasharray="1,5" points="8,-70 8,-268 1664,-268 1664,-70 8,-70"/>
</g>
<g id="clust2" class="cluster">
<title>cluster_AppModule_declarations</title>
<polygon fill="none" stroke="black" points="493,-78 493,-130 1656,-130 1656,-78 493,-78"/>
</g>
<g id="clust11" class="cluster">
<title>cluster_AppModule_imports</title>
<polygon fill="none" stroke="black" points="341,-78 341,-130 485,-130 485,-78 341,-78"/>
</g>
<g id="clust13" class="cluster">
<title>cluster_AppModule_bootstrap</title>
<polygon fill="none" stroke="black" points="800,-208 800,-260 924,-260 924,-208 800,-208"/>
</g>
<g id="clust14" class="cluster">
<title>cluster_AppModule_providers</title>
<polygon fill="none" stroke="black" points="16,-78 16,-130 333,-130 333,-78 16,-78"/>
</g>
<!-- AppComponent -->
<g id="node1" class="node">
<title>AppComponent</title>
<polygon fill="#ffffb3" stroke="black" points="1647.94,-122 1542.06,-122 1542.06,-86 1647.94,-86 1647.94,-122"/>
<text text-anchor="middle" x="1595" y="-99.8" font-family="Times,serif" font-size="14.00">AppComponent</text>
</g>
<!-- AppModule -->
<g id="node9" class="node">
<title>AppModule</title>
<polygon fill="#8dd3c7" stroke="black" points="903.66,-187 900.66,-191 879.66,-191 876.66,-187 820.34,-187 820.34,-151 903.66,-151 903.66,-187"/>
<text text-anchor="middle" x="862" y="-164.8" font-family="Times,serif" font-size="14.00">AppModule</text>
</g>
<!-- AppComponent&#45;&gt;AppModule -->
<g id="edge1" class="edge">
<title>AppComponent&#45;&gt;AppModule</title>
<path fill="none" stroke="black" d="M1595,-122.25C1595,-145.02 1595,-181 1595,-181 1595,-181 913.78,-181 913.78,-181"/>
<polygon fill="black" stroke="black" points="913.78,-177.5 903.78,-181 913.78,-184.5 913.78,-177.5"/>
</g>
<!-- GetDataComponent -->
<g id="node2" class="node">
<title>GetDataComponent</title>
<polygon fill="#ffffb3" stroke="black" points="1523.97,-122 1396.03,-122 1396.03,-86 1523.97,-86 1523.97,-122"/>
<text text-anchor="middle" x="1460" y="-99.8" font-family="Times,serif" font-size="14.00">GetDataComponent</text>
</g>
<!-- GetDataComponent&#45;&gt;AppModule -->
<g id="edge2" class="edge">
<title>GetDataComponent&#45;&gt;AppModule</title>
<path fill="none" stroke="black" d="M1460,-122.28C1460,-143.32 1460,-175 1460,-175 1460,-175 914.05,-175 914.05,-175"/>
<polygon fill="black" stroke="black" points="914.05,-171.5 904.05,-175 914.05,-178.5 914.05,-171.5"/>
</g>
<!-- NavbarComponent -->
<g id="node3" class="node">
<title>NavbarComponent</title>
<polygon fill="#ffffb3" stroke="black" points="1378.03,-122 1255.97,-122 1255.97,-86 1378.03,-86 1378.03,-122"/>
<text text-anchor="middle" x="1317" y="-99.8" font-family="Times,serif" font-size="14.00">NavbarComponent</text>
</g>
<!-- NavbarComponent&#45;&gt;AppModule -->
<g id="edge3" class="edge">
<title>NavbarComponent&#45;&gt;AppModule</title>
<path fill="none" stroke="black" d="M1317,-122.11C1317,-141.34 1317,-169 1317,-169 1317,-169 913.99,-169 913.99,-169"/>
<polygon fill="black" stroke="black" points="913.99,-165.5 903.99,-169 913.99,-172.5 913.99,-165.5"/>
</g>
<!-- NotificationComponent -->
<g id="node4" class="node">
<title>NotificationComponent</title>
<polygon fill="#ffffb3" stroke="black" points="1237.48,-122 1088.52,-122 1088.52,-86 1237.48,-86 1237.48,-122"/>
<text text-anchor="middle" x="1163" y="-99.8" font-family="Times,serif" font-size="14.00">NotificationComponent</text>
</g>
<!-- NotificationComponent&#45;&gt;AppModule -->
<g id="edge4" class="edge">
<title>NotificationComponent&#45;&gt;AppModule</title>
<path fill="none" stroke="black" d="M1163,-122.02C1163,-139.37 1163,-163 1163,-163 1163,-163 913.85,-163 913.85,-163"/>
<polygon fill="black" stroke="black" points="913.85,-159.5 903.85,-163 913.85,-166.5 913.85,-159.5"/>
</g>
<!-- PostDataComponent -->
<g id="node5" class="node">
<title>PostDataComponent</title>
<polygon fill="#ffffb3" stroke="black" points="1070.88,-122 939.12,-122 939.12,-86 1070.88,-86 1070.88,-122"/>
<text text-anchor="middle" x="1005" y="-99.8" font-family="Times,serif" font-size="14.00">PostDataComponent</text>
</g>
<!-- PostDataComponent&#45;&gt;AppModule -->
<g id="edge5" class="edge">
<title>PostDataComponent&#45;&gt;AppModule</title>
<path fill="none" stroke="black" d="M1005,-122.24C1005,-137.57 1005,-157 1005,-157 1005,-157 913.75,-157 913.75,-157"/>
<polygon fill="black" stroke="black" points="913.75,-153.5 903.75,-157 913.75,-160.5 913.75,-153.5"/>
</g>
<!-- SigninComponent -->
<g id="node6" class="node">
<title>SigninComponent</title>
<polygon fill="#ffffb3" stroke="black" points="920.9,-122 803.1,-122 803.1,-86 920.9,-86 920.9,-122"/>
<text text-anchor="middle" x="862" y="-99.8" font-family="Times,serif" font-size="14.00">SigninComponent</text>
</g>
<!-- SigninComponent&#45;&gt;AppModule -->
<g id="edge6" class="edge">
<title>SigninComponent&#45;&gt;AppModule</title>
<path fill="none" stroke="black" d="M862,-122.11C862,-122.11 862,-140.99 862,-140.99"/>
<polygon fill="black" stroke="black" points="858.5,-140.99 862,-150.99 865.5,-140.99 858.5,-140.99"/>
</g>
<!-- SignupComponent -->
<g id="node7" class="node">
<title>SignupComponent</title>
<polygon fill="#ffffb3" stroke="black" points="785.51,-122 664.49,-122 664.49,-86 785.51,-86 785.51,-122"/>
<text text-anchor="middle" x="725" y="-99.8" font-family="Times,serif" font-size="14.00">SignupComponent</text>
</g>
<!-- SignupComponent&#45;&gt;AppModule -->
<g id="edge7" class="edge">
<title>SignupComponent&#45;&gt;AppModule</title>
<path fill="none" stroke="black" d="M725,-122.24C725,-137.57 725,-157 725,-157 725,-157 810.15,-157 810.15,-157"/>
<polygon fill="black" stroke="black" points="810.15,-160.5 820.15,-157 810.15,-153.5 810.15,-160.5"/>
</g>
<!-- WebSocketComponent -->
<g id="node8" class="node">
<title>WebSocketComponent</title>
<polygon fill="#ffffb3" stroke="black" points="646.86,-122 501.14,-122 501.14,-86 646.86,-86 646.86,-122"/>
<text text-anchor="middle" x="574" y="-99.8" font-family="Times,serif" font-size="14.00">WebSocketComponent</text>
</g>
<!-- WebSocketComponent&#45;&gt;AppModule -->
<g id="edge8" class="edge">
<title>WebSocketComponent&#45;&gt;AppModule</title>
<path fill="none" stroke="black" d="M574,-122.02C574,-139.37 574,-163 574,-163 574,-163 810.12,-163 810.12,-163"/>
<polygon fill="black" stroke="black" points="810.12,-166.5 820.12,-163 810.12,-159.5 810.12,-166.5"/>
</g>
<!-- AppComponent  -->
<g id="node11" class="node">
<title>AppComponent </title>
<polygon fill="#80b1d3" stroke="black" points="916.44,-252 807.56,-252 807.56,-216 916.44,-216 916.44,-252"/>
<text text-anchor="middle" x="862" y="-229.8" font-family="Times,serif" font-size="14.00">AppComponent </text>
</g>
<!-- AppModule&#45;&gt;AppComponent  -->
<g id="edge10" class="edge">
<title>AppModule&#45;&gt;AppComponent </title>
<path fill="none" stroke="black" stroke-dasharray="1,5" d="M862,-187.11C862,-187.11 862,-205.99 862,-205.99"/>
<polygon fill="black" stroke="black" points="858.5,-205.99 862,-215.99 865.5,-205.99 858.5,-205.99"/>
</g>
<!-- AppRoutingModule -->
<g id="node10" class="node">
<title>AppRoutingModule</title>
<polygon fill="#8dd3c7" stroke="black" points="477.27,-122 474.27,-126 453.27,-126 450.27,-122 348.73,-122 348.73,-86 477.27,-86 477.27,-122"/>
<text text-anchor="middle" x="413" y="-99.8" font-family="Times,serif" font-size="14.00">AppRoutingModule</text>
</g>
<!-- AppRoutingModule&#45;&gt;AppModule -->
<g id="edge9" class="edge">
<title>AppRoutingModule&#45;&gt;AppModule</title>
<path fill="none" stroke="black" d="M413,-122.11C413,-141.34 413,-169 413,-169 413,-169 810.16,-169 810.16,-169"/>
<polygon fill="black" stroke="black" points="810.16,-172.5 820.16,-169 810.16,-165.5 810.16,-172.5"/>
</g>
<!-- AuthGuard -->
<g id="node12" class="node">
<title>AuthGuard</title>
<ellipse fill="#fdb462" stroke="black" cx="271" cy="-104" rx="54.46" ry="18"/>
<text text-anchor="middle" x="271" y="-99.8" font-family="Times,serif" font-size="14.00">AuthGuard</text>
</g>
<!-- AuthGuard&#45;&gt;AppModule -->
<g id="edge11" class="edge">
<title>AuthGuard&#45;&gt;AppModule</title>
<path fill="none" stroke="black" d="M271,-122.28C271,-143.32 271,-175 271,-175 271,-175 809.97,-175 809.97,-175"/>
<polygon fill="black" stroke="black" points="809.97,-178.5 819.97,-175 809.97,-171.5 809.97,-178.5"/>
</g>
<!-- BackendInterceptor -->
<g id="node13" class="node">
<title>BackendInterceptor</title>
<ellipse fill="#fdb462" stroke="black" cx="111" cy="-104" rx="87.36" ry="18"/>
<text text-anchor="middle" x="111" y="-99.8" font-family="Times,serif" font-size="14.00">BackendInterceptor</text>
</g>
<!-- BackendInterceptor&#45;&gt;AppModule -->
<g id="edge12" class="edge">
<title>BackendInterceptor&#45;&gt;AppModule</title>
<path fill="none" stroke="black" d="M111,-122.25C111,-145.02 111,-181 111,-181 111,-181 810.28,-181 810.28,-181"/>
<polygon fill="black" stroke="black" points="810.28,-184.5 820.28,-181 810.28,-177.5 810.28,-184.5"/>
</g>
</g>
</svg>
